<mxfile host="www.draw.io" modified="2019-12-20T03:42:00.586Z" agent="Mozilla/5.0 (X11; Linux x86_64) AppleWebKit/537.36 (KHTML, like Gecko) Chrome/73.0.3683.86 Safari/537.36" etag="3RncmHbpM8vesVAHIBN7" version="12.4.3" type="github" pages="1">
  <diagram id="D5SrRiFoWvf5I0LUAmtN" name="第 1 页">
    <mxGraphModel dx="1024" dy="612" grid="1" gridSize="10" guides="1" tooltips="1" connect="1" arrows="1" fold="1" page="1" pageScale="1" pageWidth="827" pageHeight="1169" math="0" shadow="0">
      <root>
        <mxCell id="0"/>
        <mxCell id="1" parent="0"/>
        <mxCell id="THFU7ujFhd3SdLaCnTlw-3" style="edgeStyle=orthogonalEdgeStyle;rounded=0;orthogonalLoop=1;jettySize=auto;html=1;exitX=1;exitY=0.5;exitDx=0;exitDy=0;entryX=0;entryY=0.5;entryDx=0;entryDy=0;" edge="1" parent="1" source="THFU7ujFhd3SdLaCnTlw-1" target="THFU7ujFhd3SdLaCnTlw-2">
          <mxGeometry relative="1" as="geometry"/>
        </mxCell>
        <mxCell id="THFU7ujFhd3SdLaCnTlw-6" value="周期推送" style="text;html=1;align=center;verticalAlign=middle;resizable=0;points=[];;labelBackgroundColor=#ffffff;" vertex="1" connectable="0" parent="THFU7ujFhd3SdLaCnTlw-3">
          <mxGeometry x="-0.2771" y="2" relative="1" as="geometry">
            <mxPoint as="offset"/>
          </mxGeometry>
        </mxCell>
        <mxCell id="THFU7ujFhd3SdLaCnTlw-1" value="数仓" style="shape=datastore;whiteSpace=wrap;html=1;fillColor=#dae8fc;strokeColor=#6c8ebf;" vertex="1" parent="1">
          <mxGeometry x="230" y="250" width="100" height="60" as="geometry"/>
        </mxCell>
        <mxCell id="THFU7ujFhd3SdLaCnTlw-2" value="redis" style="shape=image;html=1;verticalLabelPosition=bottom;labelBackgroundColor=#ffffff;verticalAlign=top;imageAspect=0;image=img/clipart/Gear_128x128.png" vertex="1" parent="1">
          <mxGeometry x="470" y="250" width="50" height="60" as="geometry"/>
        </mxCell>
        <mxCell id="THFU7ujFhd3SdLaCnTlw-8" style="edgeStyle=orthogonalEdgeStyle;rounded=0;orthogonalLoop=1;jettySize=auto;html=1;exitX=0.5;exitY=1;exitDx=0;exitDy=0;entryX=0.5;entryY=0;entryDx=0;entryDy=0;" edge="1" parent="1" source="THFU7ujFhd3SdLaCnTlw-7" target="THFU7ujFhd3SdLaCnTlw-1">
          <mxGeometry relative="1" as="geometry"/>
        </mxCell>
        <mxCell id="THFU7ujFhd3SdLaCnTlw-7" value="机器学习pai" style="rounded=1;whiteSpace=wrap;html=1;" vertex="1" parent="1">
          <mxGeometry x="220" y="130" width="120" height="60" as="geometry"/>
        </mxCell>
      </root>
    </mxGraphModel>
  </diagram>
</mxfile>
